<svg xmlns="http://www.w3.org/2000/svg" width="21.875" height="21.871" viewBox="0 0 21.875 21.871"><path d="M10.865,37.153a5.607,5.607,0,1,0,5.607,5.607A5.6,5.6,0,0,0,10.865,37.153Zm0,9.253a3.645,3.645,0,1,1,3.646-3.645A3.652,3.652,0,0,1,10.865,46.406Zm7.145-9.482A1.308,1.308,0,1,1,16.7,35.616,1.3,1.3,0,0,1,18.01,36.924Zm3.714,1.327a6.472,6.472,0,0,0-1.767-4.582A6.515,6.515,0,0,0,15.375,31.9c-1.806-.1-7.218-.1-9.024,0a6.506,6.506,0,0,0-4.583,1.762A6.494,6.494,0,0,0,0,38.246c-.1,1.806-.1,7.218,0,9.023a6.472,6.472,0,0,0,1.767,4.582,6.523,6.523,0,0,0,4.583,1.767c1.806.1,7.218.1,9.024,0a6.472,6.472,0,0,0,4.583-1.767,6.515,6.515,0,0,0,1.767-4.582C21.826,45.464,21.826,40.057,21.724,38.251ZM19.391,49.207a3.691,3.691,0,0,1-2.079,2.079c-1.44.571-4.856.439-6.447.439s-5.012.127-6.447-.439a3.691,3.691,0,0,1-2.079-2.079c-.571-1.44-.439-4.856-.439-6.447s-.127-5.012.439-6.447a3.691,3.691,0,0,1,2.079-2.079c1.44-.571,4.856-.439,6.447-.439s5.012-.127,6.447.439a3.691,3.691,0,0,1,2.079,2.079c.571,1.44.439,4.856.439,6.447S19.962,47.772,19.391,49.207Z" transform="translate(0.075 -31.825)" fill="#fff"/></svg>